<?xml version="1.0" encoding="utf-8"?>
<!-- Generator: Adobe Illustrator 21.0.0, SVG Export Plug-In . SVG Version: 6.00 Build 0)  -->
<svg version="1.1" id="Layer_1" xmlns="http://www.w3.org/2000/svg" xmlns:xlink="http://www.w3.org/1999/xlink" x="0px" y="0px"
	 viewBox="0 0 200 200" style="enable-background:new 0 0 200 200;" xml:space="preserve">
<style type="text/css">
	.st0{display:none;}
	.st1{display:inline;}
	.st2{fill:#F5F5F5;}
	.st3{display:inline;fill-rule:evenodd;clip-rule:evenodd;fill:#F4F5F5;}
	.st4{fill:#F4F5F5;}
	.st5{display:inline;fill:none;}
	.st6{font-family:'Gotham-Bold';}
	.st7{font-size:8.0783px;}
	.st8{fill:#FFFFFF;}
</style>
<rect width="200" height="200"/>
<g id="Woven" class="st0">
	<g id="w92OVp.tif" class="st1">
		<g>
			<path class="st2" d="M79.3,101.6c-1.9-0.1-3.8-0.3-5.7-0.4c-3.7-0.2-5.5-2-5.7-5.7c-0.1-2.2-0.1-4.4,0-6.5
				c0.1-3.2,1.7-5.2,4.7-5.4c5-0.3,9.9-0.3,14.9-0.1c2.8,0.1,4.3,1.8,4.5,4.7c0.2,2.5,0.2,5,0,7.5c-0.3,3.6-2.1,5.2-5.7,5.5
				c-1.8,0.1-3.6,0.3-5.3,0.4C80.4,101.6,79.9,101.6,79.3,101.6z M80,97C80,97,80,97,80,97c1.5,0,2.9,0,4.4,0
				c1.4-0.1,2.3-0.9,2.4-2.3c0.1-1.6,0.1-3.1,0.1-4.7c0-1.3-0.7-2.2-2-2.2c-3.1-0.1-6.2-0.1-9.3,0c-1.2,0-2,0.8-2,2.1
				c0,1.7,0,3.3,0.1,5c0.1,1.4,1,2.1,2.3,2.1C77.2,97,78.6,97,80,97z"/>
			<path class="st2" d="M54.6,96.4c1.7-4.3,3.4-8.6,5.1-12.9c1.8,0,3.5,0,5.4,0c-2.5,6-4.9,11.8-7.3,17.6c-2.5,0-4.8,0-7.3,0
				c-1.3-4.1-2.6-8.2-3.9-12.4c-0.1,0-0.2,0-0.3,0c-1.3,4.1-2.7,8.2-4,12.3c-2.4,0-4.7,0-7.3,0c-2.3-5.7-4.7-11.6-7.1-17.6
				c1.9,0,3.6,0,5.4,0c1.7,4.3,3.3,8.6,5,13c0.1,0,0.3,0,0.4,0c1.5-4.3,2.9-8.6,4.4-13c2.2,0,4.3,0,6.6,0c1.4,4.3,2.9,8.6,4.3,12.9
				C54.3,96.4,54.5,96.4,54.6,96.4z"/>
			<path class="st2" d="M147.7,83.5c2.9,0,5.7,0,8.6,0c3.4,4.3,7,8.7,10.5,13.1c0.1,0,0.2-0.1,0.4-0.1c0-4.3,0-8.5,0-12.9
				c1.7,0,3.2,0,4.9,0c0,5.9,0,11.7,0,17.6c-2.9,0-5.6,0-8.6,0c-3.4-4.2-6.8-8.6-10.6-13.3c0,4.7,0,8.9,0,13.3c-1.7,0-3.3,0-5,0
				C147.7,95.2,147.7,89.4,147.7,83.5z"/>
			<path class="st2" d="M129.1,87.3c0,1.2,0,2.1,0,3.1c4.5,0,8.9,0,13.5,0c0,1.2,0,2.3,0,3.5c-4.5,0-8.9,0-13.5,0c0,1.2,0,2.1,0,3.3
				c4.8,0,9.6,0,14.5,0c0,1.3,0,2.5,0,3.8c-6.5,0-13,0-19.7,0c0-5.8,0-11.6,0-17.5c6.4,0,12.9,0,19.5,0c0,1.2,0,2.4,0,3.8
				C138.6,87.3,133.9,87.3,129.1,87.3z"/>
			<path class="st2" d="M110.9,101.1c-2.4,0-4.6,0-6.9,0c-3.1-5.8-6.2-11.6-9.4-17.6c2.1,0,3.9,0,5.9,0c2.3,4.3,4.5,8.7,7,13.4
				c2.5-4.6,4.8-9,7.2-13.4c1.9,0,3.7,0,5.9,0C117.4,89.5,114.2,95.3,110.9,101.1z"/>
		</g>
	</g>
	<g class="st1">
		<g id="Zkv8sB.tif">
			<g>
				<path class="st2" d="M57.5,111.5C57.6,111.5,57.6,111.5,57.5,111.5c1.2,0.4,1.5,0.6,1.5,1.9c0,0.6,0,1.2-0.1,1.7
					c-0.1,1-0.6,1.4-1.6,1.5c-0.4,0-0.8,0.1-1.3,0.1c-0.4,0-0.7,0-1.1,0c-0.4,0-0.8-0.1-1.3-0.1c-1-0.1-1.5-0.6-1.5-1.5
					c0-0.6,0-1.2,0-1.8c0-1,0.4-1.4,1.4-1.6c0.1,0,0.2-0.1,0.4-0.1C55.2,111.5,56.4,111.5,57.5,111.5z M55.7,115.3
					C55.7,115.3,55.7,115.3,55.7,115.3c0.4,0,0.8,0,1.2,0c0.4,0,0.7-0.2,0.7-0.6c0-0.5,0-0.9,0-1.4c0-0.3-0.2-0.5-0.5-0.5
					c-0.9,0-1.8,0-2.7,0c-0.3,0-0.5,0.2-0.5,0.5c0,0.5,0,0.9,0,1.4c0,0.4,0.3,0.6,0.7,0.6C54.9,115.3,55.3,115.3,55.7,115.3z"/>
				<path class="st2" d="M27.8,111.5C27.8,111.5,27.8,111.5,27.8,111.5c1.2,0.4,1.5,0.6,1.5,1.9c0,0.6,0,1.2-0.1,1.7
					c-0.1,1-0.6,1.4-1.6,1.5c-0.4,0-0.8,0.1-1.3,0.1c-0.4,0-0.7,0-1.1,0c-0.4,0-0.8-0.1-1.3-0.1c-1-0.1-1.5-0.6-1.5-1.5
					c0-0.7,0-1.3,0-2c0-0.8,0.5-1.3,1.3-1.5c0.2,0,0.3-0.1,0.4-0.1C25.5,111.5,26.6,111.5,27.8,111.5z M25.9,115.3
					C25.9,115.3,25.9,115.3,25.9,115.3c0.4,0,0.8,0,1.2,0c0.4,0,0.6-0.2,0.7-0.6c0-0.4,0-0.9,0-1.3c0-0.3-0.2-0.6-0.5-0.6
					c-0.9,0-1.8,0-2.6,0c-0.3,0-0.5,0.2-0.5,0.6c0,0.4,0,0.9,0,1.3c0,0.5,0.2,0.6,0.7,0.6C25.2,115.3,25.5,115.3,25.9,115.3z"/>
				<path class="st2" d="M91,115.3c-0.2,1.1-0.8,1.2-1.6,1.2c-1,0-2,0-3,0c-1.1,0-1.6-0.5-1.7-1.6c0-0.6,0-1.2,0-1.7
					c0-1,0.5-1.4,1.4-1.6c0.2,0,0.3-0.1,0.5-0.1c0.8,0,1.7,0,2.5,0c0.2,0,0.4,0.1,0.6,0.1c0.9,0.1,1.3,0.8,1.1,1.7
					c-0.4,0-0.9,0-1.3,0c-0.1-0.2-0.1-0.3-0.2-0.4c-0.8-0.2-1.7-0.1-2.5-0.1c-0.4,0-0.6,0.3-0.6,0.6c0,0.4,0,0.8,0,1.2
					c0,0.6,0.3,0.8,0.8,0.8c0.6,0,1.2,0,1.7,0c0.6,0,0.7-0.1,0.9-0.7c0.5,0,0.9,0,1.4,0C91,114.9,91,115.1,91,115.3z"/>
				<path class="st2" d="M32.1,115.3c0,0.4,0,0.8,0,1.2c-0.5,0-1,0-1.5,0c0-1.6,0-3.2,0-4.9c0.1,0,0.2-0.1,0.3-0.1
					c1.5,0,3.1,0,4.6,0c0.9,0,1.3,0.4,1.3,1.4c0,0.1,0,0.2,0,0.3c0,0.9-0.2,1.1-1.1,1.4c0.4,0.1,0.9,0.1,1,0.6
					c0.1,0.4,0.1,0.8,0.1,1.2c-0.5,0-1,0-1.5,0c0-0.2,0-0.4,0-0.6c0-0.4-0.2-0.6-0.6-0.6C33.8,115.3,33,115.3,32.1,115.3z M32.1,114
					c1,0,1.9,0,2.9,0c0.3,0,0.4-0.3,0.4-0.6c0-0.3-0.1-0.6-0.5-0.6c-0.4,0-0.8,0-1.2,0c-0.5,0-1.1,0-1.6,0
					C32.1,113.2,32.1,113.6,32.1,114z"/>
				<path class="st2" d="M51,116.5c-0.5,0-1,0-1.5,0c0-0.6,0-1.2,0-1.8c-1.2,0-2.3,0-3.5,0c0,0.6,0,1.2,0,1.8c-0.5,0-1,0-1.5,0
					c0-1.6,0-3.2,0-4.9c0.5,0,0.9,0,1.4,0c0,0.6,0,1.1,0,1.8c1.2,0,2.3,0,3.5,0c0-0.6,0-1.1,0-1.7c0.5,0,1,0,1.5,0
					C51,113.2,51,114.8,51,116.5z"/>
				<path class="st2" d="M41.4,112.8c0,1.3,0,2.5,0,3.7c-0.5,0-1,0-1.5,0c0-1.2,0-2.4,0-3.7c-0.8,0-1.5,0-2.2,0c0-0.4,0-0.8,0-1.2
					c2,0,3.9,0,5.9,0c0,0.4,0,0.8,0,1.2C42.9,112.8,42.2,112.8,41.4,112.8z"/>
				<path class="st2" d="M74.2,111.6c0.1,0,0.2,0,0.3,0c1.5,0,3.1,0,4.6,0c1.2,0,1.7,0.5,1.7,1.7c0,0.6,0,1.1,0,1.7
					c0,0.9-0.6,1.5-1.5,1.5c-1.7,0-3.4,0-5.1,0C74.2,114.9,74.2,113.2,74.2,111.6z M75.6,115.3c1,0,2,0,3,0c0.3,0,0.5-0.2,0.6-0.5
					c0-0.5,0-0.9,0-1.4c0-0.4-0.3-0.6-0.6-0.6c-1,0-1.9,0-2.9,0C75.6,113.6,75.6,114.5,75.6,115.3z"/>
				<path class="st2" d="M68.9,114.5c0,0.3,0,0.6,0,0.9c1.3,0,2.7,0,4,0c0,0.4,0,0.7,0,1.1c-1.8,0-3.6,0-5.5,0c0-1.6,0-3.2,0-4.9
					c1.8,0,3.6,0,5.4,0c0,0.3,0,0.7,0,1.1c-1.3,0-2.6,0-4,0c0,0.3,0,0.6,0,0.9c1.2,0,2.5,0,3.8,0c0,0.3,0,0.6,0,1
					C71.4,114.5,70.1,114.5,68.9,114.5z"/>
				<path class="st2" d="M61.7,115.3c0,0.4,0,0.8,0,1.2c-0.5,0-1,0-1.4,0c0-1.6,0-3.3,0-4.9c0.1,0,0.2,0,0.2,0c1.4,0,2.9,0,4.3,0
					c0.9,0,1.3,0.4,1.4,1.3c0,0.5,0,1-0.1,1.5c-0.1,0.5-0.4,0.8-0.9,0.8c-0.5,0.1-1.1,0.1-1.6,0.1C63,115.3,62.4,115.3,61.7,115.3z
					 M61.8,114.1c0.8,0,1.6,0,2.4,0c0.5,0,0.6-0.2,0.6-0.7c0-0.5-0.1-0.6-0.6-0.6c-0.4,0-0.9,0-1.3,0c-0.3,0-0.7,0-1,0
					C61.8,113.2,61.8,113.6,61.8,114.1z"/>
				<path class="st2" d="M83.4,116.5c-0.5,0-0.9,0-1.4,0c0-1.6,0-3.3,0-4.9c0.5,0,0.9,0,1.4,0C83.4,113.2,83.4,114.8,83.4,116.5z"/>
			</g>
		</g>
		<g id="_x38_1HGHC.tif">
			<g>
				<path class="st2" d="M134.9,116.6c-0.3,0-0.7-0.1-1-0.1c-0.9-0.1-1.4-0.6-1.5-1.5c0-0.7,0-1.3,0-2c0-0.8,0.5-1.4,1.3-1.4
					c1.4-0.1,2.8-0.1,4.2,0c0.8,0,1.2,0.5,1.3,1.3c0.1,0.7,0.1,1.5,0,2.2c-0.1,0.9-0.6,1.3-1.5,1.4c-0.4,0-0.7,0.1-1.1,0.1
					C136,116.6,135.4,116.6,134.9,116.6z M135.7,115.3C135.7,115.3,135.7,115.3,135.7,115.3c0.4,0,0.8,0,1.2,0
					c0.4,0,0.7-0.2,0.7-0.6c0-0.5,0-0.9,0-1.4c0-0.3-0.2-0.5-0.5-0.5c-0.9,0-1.8,0-2.7,0c-0.3,0-0.5,0.2-0.5,0.5c0,0.4,0,0.9,0,1.3
					c0,0.5,0.2,0.6,0.7,0.6C135,115.3,135.4,115.3,135.7,115.3z"/>
				<path class="st2" d="M148.6,116.6c-0.3,0-0.7-0.1-1-0.1c-0.9-0.1-1.4-0.6-1.5-1.5c0-0.7,0-1.3,0-2c0-0.8,0.5-1.4,1.3-1.4
					c1.4-0.1,2.8-0.1,4.2,0c0.8,0,1.2,0.5,1.3,1.3c0.1,0.7,0.1,1.5,0,2.2c-0.1,0.9-0.6,1.3-1.5,1.4c-0.4,0-0.7,0.1-1.1,0.1
					C149.8,116.6,149.2,116.6,148.6,116.6z M149.5,115.3C149.5,115.3,149.5,115.3,149.5,115.3c0.4,0,0.8,0,1.2,0
					c0.4,0,0.6-0.2,0.7-0.6c0-0.4,0-0.9,0-1.4c0-0.3-0.2-0.5-0.5-0.5c-0.9,0-1.7,0-2.6,0c-0.3,0-0.6,0.2-0.6,0.6c0,0.4,0,0.9,0,1.3
					c0,0.4,0.2,0.6,0.7,0.6C148.7,115.3,149.1,115.3,149.5,115.3z"/>
				<path class="st2" d="M177.5,115.1c0,0.1-0.1,0.1-0.1,0.2c-0.2,0.9-0.5,1.2-1.4,1.2c-1.2,0-2.4,0.1-3.6,0c-1,0-1.3-0.5-1.2-1.5
					c0.5,0,0.9,0,1.4,0c0,0.1,0.1,0.2,0.2,0.4c1,0.1,2,0.2,3-0.1c0-0.2,0-0.4,0-0.6c-0.3,0-0.5-0.1-0.7-0.1c-0.8,0-1.6,0-2.4,0
					c-0.2,0-0.4,0-0.6-0.1c-0.7-0.1-0.9-0.4-1-1.1c-0.1-1.3,0.2-1.7,1.5-1.8c1.1-0.1,2.1-0.1,3.2,0c1,0,1.3,0.4,1.2,1.5
					c-0.5,0-0.9,0-1.3,0c-0.3-0.2-0.4-0.4-0.6-0.4c-0.7,0-1.5,0-2.2,0c-0.1,0-0.2,0.1-0.3,0.1c-0.2,0.5-0.1,0.7,0.5,0.7
					c0.7,0,1.5,0,2.2,0c0.3,0,0.6,0,0.9,0.1c0.7,0.1,0.9,0.3,1,1c0,0.1,0.1,0.2,0.1,0.3C177.5,114.9,177.5,115,177.5,115.1z"/>
				<path class="st2" d="M124.3,111.5c0.8,0,1.6,0,2.4,0c1,1.2,1.9,2.4,2.9,3.6c0,0,0.1,0,0.1,0c0-1.2,0-2.4,0-3.6
					c0.5,0,0.9,0,1.4,0c0,1.6,0,3.3,0,4.9c-0.8,0-1.6,0-2.4,0c-0.9-1.2-1.9-2.4-2.9-3.7c0,1.3,0,2.5,0,3.7c-0.5,0-0.9,0-1.4,0
					C124.3,114.8,124.3,113.2,124.3,111.5z"/>
				<path class="st2" d="M160.5,113.2c-0.4,0-0.9,0-1.4,0c-0.1-0.5-0.5-0.6-0.9-0.5c-0.6,0-1.2,0-1.8,0c-0.6,0-0.7,0.2-0.8,0.7
					c0,0.4,0,0.9,0,1.4c0,0.4,0.3,0.6,0.6,0.6c0.8,0,1.5,0,2.3,0c0.4,0,0.5-0.2,0.5-0.7c-0.6,0-1.2,0-1.8,0c0-0.3,0-0.6,0-0.9
					c1.1,0,2.2,0,3.4,0c0,0.7,0.1,1.3-0.1,2c-0.1,0.5-0.5,0.8-1,0.8c-1.3,0-2.6,0-4,0c-0.8,0-1.3-0.5-1.3-1.3c-0.1-0.8,0-1.7,0-2.5
					c0.1-0.7,0.5-1.1,1.2-1.1c1.3-0.1,2.6-0.1,3.9,0C160.3,111.6,160.6,112.2,160.5,113.2z"/>
				<path class="st2" d="M102.3,116.5c0-1.6,0-3.3,0-4.9c1.8,0,3.6,0,5.5,0c0,0.4,0,0.7,0,1.1c-1.3,0-2.6,0-4,0c0,0.3,0,0.5,0,0.9
					c1.2,0,2.5,0,3.7,0c0,0.3,0,0.6,0,1c-1.3,0-2.5,0-3.8,0c0,0.3,0,0.6,0,0.9c1.3,0,2.7,0,4,0c0,0.4,0,0.7,0,1.1
					C106.1,116.5,104.2,116.5,102.3,116.5z"/>
				<path class="st2" d="M164.6,116.5c0-1.7,0-3.3,0-4.9c1.8,0,3.6,0,5.5,0c0,0.3,0,0.7,0,1.1c-1.3,0-2.6,0-4,0c0,0.3,0,0.6,0,0.9
					c1.3,0,2.5,0,3.8,0c0,0.3,0,0.6,0,1c-1.3,0-2.5,0-3.8,0c0,0.3,0,0.6,0,0.9c1.3,0,2.7,0,4,0c0,0.4,0,0.7,0,1.1
					C168.3,116.5,166.4,116.5,164.6,116.5z"/>
				<path class="st2" d="M113.8,114.7c0.5,0,1,0,1.4,0c0,0.3,0,0.5,0,0.8c-0.1,0.6-0.3,0.9-0.9,1c-0.9,0.1-1.8,0.1-2.7,0.1
					c-0.5,0-1.1,0-1.6-0.1c-0.5-0.1-0.9-0.4-0.9-0.9c-0.1-0.9-0.1-1.8,0-2.7c0.1-0.7,0.5-1.1,1.3-1.2c1.3-0.1,2.5-0.1,3.8,0
					c0.8,0,1.1,0.6,1.1,1.6c-0.5,0-0.9,0-1.4,0c0-0.1-0.1-0.2-0.2-0.4c-0.2,0-0.3-0.1-0.5-0.1c-0.7,0-1.4,0-2.1,0
					c-0.5,0-0.6,0.2-0.6,0.6c0,0.4,0,0.8,0,1.3c0,0.4,0.2,0.6,0.7,0.7c0.7,0,1.4,0,2.1,0C113.7,115.3,113.8,115,113.8,114.7z"/>
				<path class="st2" d="M121.4,111.5c0.5,0,1,0,1.5,0c0,1.7,0,3.3,0,4.9c-0.5,0-1,0-1.5,0c0-0.6,0-1.2,0-1.8c-1.2,0-2.3,0-3.5,0
					c0,0.6,0,1.2,0,1.8c-0.5,0-1,0-1.5,0c0-1.6,0-3.3,0-4.9c0.5,0,0.9,0,1.5,0c0,0.6,0,1.1,0,1.8c1.2,0,2.3,0,3.5,0
					C121.4,112.7,121.4,112.1,121.4,111.5z"/>
				<path class="st2" d="M97.7,112.8c-0.8,0-1.5,0-2.2,0c0-0.4,0-0.8,0-1.2c2,0,3.9,0,5.9,0c0,0.4,0,0.8,0,1.2c-0.7,0-1.4,0-2.2,0
					c0,1.3,0,2.5,0,3.7c-0.5,0-1,0-1.5,0C97.7,115.2,97.7,114,97.7,112.8z"/>
				<path class="st2" d="M140.3,116.5c0-1.7,0-3.3,0-4.9c0.5,0,0.9,0,1.5,0c0,1.2,0,2.4,0,3.7c1.2,0,2.3,0,3.4,0c0,0.4,0,0.8,0,1.2
					C143.6,116.5,142,116.5,140.3,116.5z"/>
				<path class="st2" d="M161.8,111.5c0.2,0,0.4,0,0.5,0c0.3,0,0.6,0,0.9,0c0,1.7,0,3.3,0,5c-0.5,0-0.9,0-1.4,0
					C161.8,114.8,161.8,113.2,161.8,111.5z"/>
			</g>
		</g>
	</g>
</g>
<g id="IBM" class="st0">
	<g class="st1">
		<path class="st2" d="M89.1,74.2c0.5,0.1,1,0.1,1.4,0.2c3,0.4,5.9,1.2,8.4,3.2c0.1,0.1,0.2,0.1,0.3,0.2c-12.9,0-25.7,0-38.5,0
			c0-1.2,0-2.4,0-3.6C70.2,74.2,79.7,74.2,89.1,74.2z"/>
		<path class="st2" d="M29.3,80.9c9.1,0,18.1,0,27.2,0c0,1.3,0,2.5,0,3.8c-0.1,0-0.3,0-0.4,0c-8.8,0-17.6,0-26.4,0
			c-0.1,0-0.3,0-0.4,0C29.3,83.4,29.3,82.2,29.3,80.9z"/>
		<path class="st2" d="M29.3,115.2c0.1,0,0.2,0,0.4,0c8.8,0,17.7,0,26.5,0c0.1,0,0.2,0,0.4,0c0,1.3,0,2.5,0,3.7c-0.1,0-0.2,0-0.3,0
			c-8.9,0-17.7,0-26.6,0c-0.1,0-0.2,0-0.3,0C29.3,117.6,29.3,116.4,29.3,115.2z"/>
		<path class="st2" d="M29.3,122.1c9.1,0,18.1,0,27.2,0c0,1.2,0,2.4,0,3.7c-0.1,0-0.2,0-0.3,0c-8.9,0-17.7,0-26.6,0
			c-0.1,0-0.2,0-0.3,0C29.3,124.6,29.3,123.3,29.3,122.1z"/>
		<path class="st2" d="M56.5,74.2c0,1.2,0,2.4,0,3.6c-9.1,0-18.1,0-27.2,0c0-0.3,0-0.5,0-0.8c0-0.8,0-1.7,0-2.5c0-0.1,0-0.2,0.1-0.3
			C38.4,74.2,47.5,74.2,56.5,74.2z"/>
		<path class="st2" d="M170.7,74.2c0,0.6,0,1.1,0,1.7c0,0.6,0,1.3,0,1.9c-7.8,0-15.6,0-23.4,0c0.5-1.2,1-2.4,1.5-3.6
			C156.1,74.2,163.4,74.2,170.7,74.2z"/>
		<path class="st2" d="M127.2,95.4c0,0.9,0,1.9,0,2.8c-3.8,0-7.6,0-11.4,0c0-1.2,0-2.4,0-3.7c0.1,0,0.2,0,0.3,0c7.2,0,14.5,0,21.7,0
			c0.2,0,0.3,0.1,0.4,0.3c0.3,0.9,0.7,1.8,1.1,2.7c0,0.1,0.1,0.2,0.1,0.3c0.4-1.1,0.9-2.2,1.3-3.2c7.4,0,14.7,0,22.1,0
			c0,1.2,0,2.5,0,3.7c-3.8,0-7.5,0-11.3,0c0-1,0-1.9,0-2.9c0,0,0,0-0.1,0c0,0.1-0.1,0.1-0.1,0.2c-0.3,0.8-0.7,1.6-1,2.4
			c-0.1,0.2-0.2,0.3-0.4,0.3c-7,0-14,0-21.1,0c-0.2,0-0.3-0.1-0.4-0.3c-0.4-0.8-0.8-1.6-1.2-2.5C127.3,95.5,127.3,95.4,127.2,95.4
			C127.3,95.4,127.2,95.4,127.2,95.4z"/>
		<path class="st2" d="M60.7,115.1c14.7,0,29.5,0,44.3,0c-0.2,0.6-0.3,1.2-0.5,1.7c-0.2,0.6-0.5,1.2-0.8,1.8
			c-0.1,0.2-0.3,0.3-0.5,0.3c-3.3,0-6.6,0-9.9,0c-4.5,0-9.1,0-13.6,0c-2.1,0-4.2,0-6.3,0c-4.2,0-8.3,0-12.5,0c-0.1,0-0.1,0-0.2,0
			C60.7,117.6,60.7,116.4,60.7,115.1z"/>
		<path class="st2" d="M104.2,84.7c-14.5,0-29,0-43.5,0c0-1.3,0-2.5,0-3.8c0.1,0,0.2,0,0.3,0c13.7,0,27.4,0,41.1,0
			c0.2,0,0.4,0.1,0.5,0.2c0.7,1,1.3,2.1,1.6,3.4C104.2,84.5,104.2,84.6,104.2,84.7z"/>
		<path class="st2" d="M60.8,122.1c13.5,0,27,0,40.5,0c0,0,0,0,0,0.1c-0.3,0.3-0.6,0.5-1,0.8c-1.7,1.2-3.5,1.8-5.5,2.3
			c-1.7,0.4-3.3,0.5-5,0.5c-9.5,0-19.1,0-28.6,0c-0.1,0-0.3,0-0.4,0C60.8,124.6,60.8,123.4,60.8,122.1z"/>
		<path class="st2" d="M68.6,98.2c0-1.2,0-2.5,0-3.7c11.3,0,22.6,0,33.9,0c0,0,0,0.1,0,0.1c-1.2,1.6-2.6,2.7-4.4,3.5
			c-0.1,0.1-0.3,0.1-0.4,0.1c-9.6,0-19.1,0-28.7,0C68.9,98.2,68.8,98.2,68.6,98.2z"/>
		<path class="st2" d="M102.5,105c-11.3,0-22.6,0-33.9,0c0-1.2,0-2.4,0-3.7c0.1,0,0.2,0,0.3,0c9.6,0,19.1,0,28.7,0
			c0.1,0,0.3,0,0.4,0C99.9,102.1,101.5,103.2,102.5,105z"/>
		<path class="st2" d="M108,84.7c0-1.3,0-2.5,0-3.8c0.1,0,0.2,0,0.3,0c8.1,0,16.1,0,24.2,0c0.2,0,0.3,0.1,0.4,0.3
			c0.4,1.1,0.8,2.2,1.2,3.3c0,0.1,0,0.1,0.1,0.2C125.4,84.7,116.7,84.7,108,84.7z"/>
		<path class="st2" d="M170.7,80.9c0,1.3,0,2.5,0,3.8c-8.7,0-17.4,0-26.1,0c0-0.1,0-0.1,0.1-0.2c0.4-1.1,0.9-2.2,1.3-3.4
			c0.1-0.2,0.2-0.2,0.3-0.2c8.1,0,16.1,0,24.2,0C170.5,80.9,170.6,80.9,170.7,80.9z"/>
		<path class="st2" d="M131.6,77.8c-7.9,0-15.8,0-23.7,0c0-1.2,0-2.4,0-3.6c0.1,0,0.2,0,0.3,0c7.2,0,14.5,0,21.7,0
			c0.3,0,0.4,0.1,0.5,0.3C130.8,75.6,131.2,76.7,131.6,77.8z"/>
		<path class="st2" d="M162.8,87.8c0,1.2,0,2.4,0,3.6c-6.9,0-13.8,0-20.7,0c0.1-0.1,0.1-0.3,0.1-0.4c0.4-1,0.8-2,1.1-3
			c0.1-0.2,0.1-0.3,0.3-0.3c6.3,0,12.5,0,18.8,0C162.7,87.8,162.7,87.8,162.8,87.8z"/>
		<path class="st2" d="M136.9,91.4c-7,0-14.1,0-21.1,0c0-1.2,0-2.4,0-3.6c0.1,0,0.2,0,0.4,0c6.3,0,12.6,0,18.9,0
			c0.2,0,0.4,0.1,0.5,0.3c0.4,1,0.8,2,1.3,3C136.8,91.2,136.8,91.3,136.9,91.4z"/>
		<path class="st2" d="M127.3,115.1c0,1.2,0,2.5,0,3.7c-6.4,0-12.9,0-19.3,0c0-1.2,0-2.5,0-3.7C114.4,115.1,120.8,115.1,127.3,115.1
			z"/>
		<path class="st2" d="M151.6,115.2c6.4,0,12.7,0,19.1,0c0,1.2,0,2.4,0,3.7c-6.4,0-12.7,0-19.1,0
			C151.6,117.6,151.6,116.4,151.6,115.2z"/>
		<path class="st2" d="M170.7,122.1c0,1.2,0,2.4,0,3.7c-6.4,0-12.8,0-19.2,0c0-1.2,0-2.4,0-3.7C157.9,122.1,164.3,122.1,170.7,122.1
			z"/>
		<path class="st2" d="M108,122.1c6.4,0,12.8,0,19.3,0c0,1.2,0,2.4,0,3.7c-6.4,0-12.8,0-19.3,0C108,124.6,108,123.4,108,122.1z"/>
		<path class="st2" d="M149.1,101.4c-0.4,1.2-0.9,2.5-1.3,3.7c-0.8,0-1.6,0-2.5,0c-1.4,0-2.9,0-4.3,0c-3,0-6.1,0-9.1,0
			c-0.2,0-0.3-0.1-0.4-0.3c-0.5-1.1-0.9-2.1-1.4-3.2c0-0.1-0.1-0.2-0.1-0.3C136.3,101.4,142.7,101.4,149.1,101.4z"/>
		<path class="st2" d="M92,111.9c0-1.2,0-2.4,0-3.6c0.1,0,0.2,0,0.3,0c3.9,0,7.7,0,11.6,0c0.2,0,0.3,0.1,0.4,0.2
			c0.5,0.8,0.7,1.6,0.9,2.5c0.1,0.3,0.1,0.6,0.2,1C100.9,111.9,96.5,111.9,92,111.9z"/>
		<path class="st2" d="M105.1,87.9c-0.1,0.4-0.1,0.9-0.2,1.3c-0.2,0.7-0.5,1.5-0.8,2.2c0,0.1-0.2,0.2-0.2,0.2c-3.9,0-7.8,0-11.6,0
			c0,0-0.1,0-0.1,0c0-1.2,0-2.4,0-3.6C96.4,87.9,100.7,87.9,105.1,87.9z"/>
		<path class="st2" d="M146.5,108.3c-0.2,0.5-0.4,1.1-0.6,1.6c-0.2,0.6-0.5,1.2-0.7,1.8c-0.1,0.2-0.1,0.2-0.3,0.2c-3.5,0-7,0-10.5,0
			c-0.1,0-0.2-0.1-0.3-0.1c-0.5-1.2-1-2.3-1.5-3.5C137.3,108.3,141.9,108.3,146.5,108.3z"/>
		<path class="st2" d="M127.3,105.1c-3.8,0-7.6,0-11.5,0c0-1.2,0-2.5,0-3.7c3.8,0,7.6,0,11.5,0C127.3,102.6,127.3,103.9,127.3,105.1
			z"/>
		<path class="st2" d="M80.3,108.3c0,1.2,0,2.4,0,3.7c-3.9,0-7.8,0-11.7,0c0-1.2,0-2.4,0-3.7C72.5,108.3,76.4,108.3,80.3,108.3z"/>
		<path class="st2" d="M37.2,105.1c0-1.3,0-2.5,0-3.7c3.9,0,7.7,0,11.6,0c0,1.2,0,2.5,0,3.7C44.9,105.1,41.1,105.1,37.2,105.1z"/>
		<path class="st2" d="M48.8,94.6c0,1.2,0,2.4,0,3.7c-3.9,0-7.7,0-11.6,0c0-1.2,0-2.4,0-3.7C41.1,94.6,44.9,94.6,48.8,94.6z"/>
		<path class="st2" d="M162.8,101.4c0,1.3,0,2.5,0,3.7c-3.7,0-7.5,0-11.2,0c0-1.2,0-2.5,0-3.7C155.3,101.4,159.1,101.4,162.8,101.4z
			"/>
		<path class="st2" d="M48.8,112c-3.9,0-7.7,0-11.6,0c0-1.2,0-2.4,0-3.7c3.9,0,7.7,0,11.6,0C48.8,109.5,48.8,110.7,48.8,112z"/>
		<path class="st2" d="M80.4,91.4c-3.9,0-7.8,0-11.7,0c0-1.2,0-2.4,0-3.6c3.9,0,7.8,0,11.7,0C80.4,89,80.4,90.2,80.4,91.4z"/>
		<path class="st2" d="M48.8,87.8c0,1.2,0,2.4,0,3.6c-3.9,0-7.7,0-11.6,0c0-1.2,0-2.4,0-3.6C41.1,87.8,44.9,87.8,48.8,87.8z"/>
		<path class="st2" d="M115.8,108.3c3.8,0,7.7,0,11.5,0c0,1.2,0,2.4,0,3.6c-3.8,0-7.7,0-11.5,0C115.8,110.7,115.8,109.5,115.8,108.3
			z"/>
		<path class="st2" d="M151.6,112c0-1.2,0-2.4,0-3.6c3.7,0,7.5,0,11.3,0c0,1.2,0,2.4,0,3.6C159.1,112,155.4,112,151.6,112z"/>
		<path class="st2" d="M143.7,115.2c-0.3,0.7-0.5,1.4-0.8,2.1c-0.2,0.5-0.3,0.9-0.5,1.4c-0.1,0.2-0.1,0.3-0.4,0.3
			c-1.7,0-3.4,0-5.1,0c-0.1,0-0.2-0.1-0.3-0.1c-0.5-1.1-1-2.3-1.5-3.4c0,0,0,0,0-0.1C138,115.2,140.8,115.2,143.7,115.2z"/>
		<path class="st2" d="M139.2,125.8c-0.5-1.2-0.9-2.4-1.4-3.7c1.1,0,2.1,0,3.2,0c0,0.1,0,0.2-0.1,0.3c-0.3,1-0.6,2.1-0.9,3.1
			c-0.1,0.2-0.1,0.3-0.4,0.3C139.5,125.8,139.4,125.8,139.2,125.8z"/>
	</g>
</g>
<g id="Schick_1_" class="st0">
	<path class="st3" d="M145.4,100.4c0.7-0.6,1.4-1.1,2-1.6c1.2-1,2.3-1.9,3.5-2.9c0.5-0.5,1-1,1.4-1.6c0.5-0.7,0.2-1.2-0.6-1.4
		c-0.3-0.1-0.5-0.1-0.8-0.2c-0.6-0.1-0.9-0.5-0.9-1.1c0.2,0,0.4,0,0.6,0c1.8,0,3.6,0,5.4,0c0.4,0,0.8,0.1,1.2,0.2
		c0.9,0.3,1,0.9,0.4,1.5c-0.2,0.2-0.5,0.4-0.8,0.7c-1.8,1.4-3.6,2.9-5.5,4.3c5.7,6.7,11.3,13.4,17,20.1c-44.9,0-89.6,0-134.4,0
		c0-0.1,0-0.1,0-0.2c1-0.1,2-0.1,3.1-0.1c4.5-0.2,8.9-0.3,13.4-0.5c3-0.1,5.9-0.2,8.9-0.3c4.6-0.1,9.1-0.3,13.7-0.5
		c3.4-0.1,6.7-0.2,10.1-0.4c4.5-0.2,9.1-0.3,13.6-0.5c3.4-0.1,6.7-0.2,10.1-0.4c4.6-0.2,9.1-0.3,13.7-0.5c4.5-0.2,9-0.3,13.5-0.5
		c4.5-0.2,9-0.3,13.5-0.5c2.7-0.1,5.4-0.2,8.2-0.3c-3.4-4.2-6.7-8.4-10.1-12.6c0,3.2,0,6.3,0,9.4c-2.4,0-4.7,0-7.1,0
		c0-0.6,0-1.2,0-1.8c0-7.8,0-15.7,0-23.5c0-1.1-0.1-1.3-1.2-1.6c-0.5-0.1-0.6-0.4-0.7-1.1c0.1,0,0.2,0,0.3,0c2.2,0,4.5,0,6.7,0
		c1.1,0,2,0.9,2,2.2c0,1.8,0,3.7,0,5.5c0,3.1,0,6.3,0,9.4C145.4,99.9,145.4,100.1,145.4,100.4z"/>
	<path class="st3" d="M31.7,101.6c0.7-0.2,1.2,0,1.6,0.6c0.2,0.2,0.3,0.5,0.5,0.7c2.1,3.5,5.2,5.6,9.3,6.1c1.8,0.2,3.5-0.1,4.9-1.4
		c1.6-1.5,1.5-3.4-0.3-4.6c-1.3-0.9-2.7-1.6-4.1-2.3c-1.8-0.9-3.7-1.7-5.6-2.7c-1.6-0.8-3-1.8-4.1-3.2c-2.9-3.7-2-8.6,2.1-11.3
		c2.5-1.7,5.4-2.2,8.3-2c3.5,0.2,6.9,0.8,10.3,1.9c0.6,0.2,0.8,0.5,0.8,1.1c0,2,0,3.9,0,5.9c0,0.2,0,0.4,0,0.6
		c-0.8,0.2-1.4,0-1.9-0.7c-0.2-0.3-0.4-0.7-0.6-1c-1.6-3.1-4.1-4.8-7.5-5.1c-0.9-0.1-1.8,0-2.7,0.1c-0.3,0-0.6,0.2-0.9,0.3
		c-2.5,1.2-2.8,3.6-0.7,5.3c0.6,0.5,1.3,0.9,1.9,1.2c2.5,1.3,5.1,2.5,7.6,3.7c0.9,0.5,1.8,1,2.6,1.7c2.3,1.8,3,4.2,2.7,7
		c-0.4,3.6-2.7,5.6-5.9,6.8c-2.6,0.9-5.3,1.1-8,0.9c-3-0.2-5.9-0.7-8.8-1.5c-1.5-0.4-1.5-0.4-1.5-1.9
		C31.7,105.9,31.7,103.8,31.7,101.6z"/>
	<path class="st3" d="M100.5,110.6c-0.3,0-0.5,0-0.7,0c-2,0-4,0-6.2,0c0-1.1,0-2.1,0-3.1c0-3.5,0-7,0-10.4c0-0.4,0-0.9-0.1-1.3
		c-0.3-1.6-2.2-2.4-3.7-1.5c-0.7,0.4-1.2,1.2-1.8,1.8c-0.1,0.1-0.1,0.4-0.1,0.6c0,4.4,0,8.8,0,13.2c0,0.2,0,0.5,0,0.7
		c-2.4,0-4.7,0-7.1,0c0-0.5,0-1,0-1.5c0-7.7,0-15.4,0-23.1c0-0.2,0-0.5,0-0.7c0-0.8-0.4-1.3-1.1-1.5c-0.5-0.2-0.9-0.5-0.9-1.1
		c0.2,0,0.4,0,0.5,0c2,0,4.1,0,6.1,0c1.5,0,2.5,1,2.5,2.5c0,2.7,0,5.4,0,8.1c0,0.2,0,0.4,0,0.8c0.2-0.2,0.4-0.3,0.5-0.5
		c2.3-2.2,5.1-2.9,8.2-2.3c2.2,0.4,3.5,2,3.7,4.3c0.1,1.2,0.1,2.5,0.1,3.7c0,3.6,0,7.1,0,10.7C100.5,110.1,100.5,110.3,100.5,110.6z
		"/>
	<path class="st3" d="M77.7,106.9c-1.7,2.1-3.8,3.4-6.4,4c-3.2,0.7-6.3,0.5-9.1-1.5c-2.9-2-4.2-4.9-4.1-8.4c0.1-5.1,4-9.1,9.1-9.9
		c2.1-0.3,4.1-0.3,6.1,0.4c1.3,0.4,2.4,1,3.3,2c0.4,0.4,0.7,0.9,0.9,1.5c0.3,1-0.4,1.8-1.4,1.6c-0.8-0.1-1.5-0.5-2.1-1.1
		c-1-1.1-2.3-1.8-3.8-1.9c-2.7-0.2-4.7,1.4-5.1,4.1c-0.3,2.3-0.1,4.5,0.8,6.7c1.9,4.5,6.8,4.6,9.4,2.8c0.4-0.3,0.8-0.4,1.3-0.6
		C77.1,106.4,77.4,106.5,77.7,106.9z"/>
	<path class="st3" d="M135,106.9c-1.3,1.6-2.9,2.8-4.8,3.5c-3.9,1.4-7.7,1.3-11-1.3c-2.8-2.2-3.9-5.1-3.6-8.6
		c0.3-4.8,4.1-8.5,9.1-9.4c2.6-0.4,5.1-0.3,7.5,1c0.8,0.4,1.5,0.9,2.1,1.5c0.4,0.4,0.7,1,0.8,1.5c0.2,1-0.5,1.6-1.5,1.4
		c-0.8-0.1-1.5-0.5-2.1-1.1c-1.4-1.4-3.1-2.1-5.1-1.8c-2.1,0.3-3.5,1.8-3.8,4.2c-0.3,2.5-0.1,4.9,1.1,7.2c1.8,3.4,5.9,4.3,9.2,2.2
		c0.3-0.2,0.7-0.4,1.1-0.5C134.3,106.4,134.7,106.5,135,106.9z"/>
	<path class="st3" d="M112.1,110.6c-2.3,0-4.6,0-6.8,0c0-0.6,0-1.1,0-1.7c0-4.9,0-9.8,0-14.7c0-1.1-0.1-1.2-1.1-1.5
		c-0.5-0.2-0.8-0.6-0.8-1.2c0.2,0,0.4,0,0.6,0c1.9,0,3.9,0,5.8,0c1.2,0,2.1,0.8,2.2,2c0,0.2,0,0.4,0,0.5c0,5.3,0,10.7,0,16
		C112.1,110.2,112.1,110.4,112.1,110.6z"/>
	<path class="st3" d="M108.5,88.2c-0.9,0-1.8-0.3-2.5-0.8c-1.6-1.3-1.6-3.6,0.1-4.8c1.4-1,3.4-1,4.8,0c1.9,1.3,1.9,3.8-0.1,5
		c-0.7,0.4-1.5,0.6-2.3,0.8C108.5,88.3,108.5,88.3,108.5,88.2z"/>
</g>
<g id="Campus_MovieFest" class="st0">
	<g class="st1">
		<path class="st2" d="M63.1,84.4c3.9,0,7.7,0,11.6,0c1.5,6.6,3.1,13.3,4.7,20.2c1.8-6.8,3.5-13.5,5.3-20.2c3.8,0,7.4,0,11.4,0
			c0.5,10.6,1.1,21.2,1.6,31.9c-2.8,0-5.4,0-8.4,0c-0.2-7.9-0.4-15.9-0.5-23.8c-0.1,0-0.1,0-0.2,0c-2.2,7.7-4.3,15.4-6.5,23.1
			c-2.3,0-4.4,0-6.8,0c-1.7-7.6-3.4-15.1-5.1-22.6c-0.1,0-0.1,0-0.2,0c-0.3,7.7-0.7,15.4-1,23.3c-2.5,0-5,0-7.8,0
			C61.8,105.7,62.4,95,63.1,84.4z"/>
		<path class="st2" d="M150.5,116.9c-4.6-0.1-8.3-0.6-11.5-2.6c-5.9-3.6-8.3-9.1-7.8-15.7c0.5-6.4,3.6-11.2,9.6-13.6
			c6.4-2.6,12.8-2.4,19,0.6c6,3,9.3,9.9,8.3,16.8c-1.1,7.4-6,12.7-13.3,14C153.1,116.7,151.4,116.8,150.5,116.9z M142.7,88.1
			c0,8.1,0,15.9,0,23.9c7-4,13.7-7.9,20.7-12C156.3,95.9,149.6,92,142.7,88.1z"/>
		<path class="st2" d="M57.6,84.9c-0.6,2.6-1.2,4.7-1.7,6.8c-1.5-0.3-2.9-0.6-4.3-0.9c-4.1-0.7-8,1.1-9.8,4.2
			c-2,3.5-1.6,8.9,0.9,11.8c1.5,1.8,3.5,2.8,5.8,2.8c2.3,0.1,4.7-0.2,7.3-0.4c0.3,1.9,0.7,4.1,1.2,6.6c-2.7,0.4-5.1,0.9-7.5,1
			c-4.2,0.1-8.2-0.6-11.7-3.1c-3.2-2.3-5.1-5.5-5.8-9.4c-1-6.1,0-11.8,4.8-16.2c4-3.7,9-4.8,14.4-4.4C53.3,84,55.4,84.5,57.6,84.9z"
			/>
		<path class="st2" d="M111.8,97.3c3.7,0,7.3,0,11,0c0,2.3,0,4.4,0,6.7c-3.6,0-7.2,0-11.1,0c0,4.2,0,8.2,0,12.3c-2.9,0-5.6,0-8.4,0
			c0-10.6,0-21.2,0-31.9c6.7,0,13.4,0,20.2,0c0,2.2,0,4.4,0,6.8c-3.9,0-7.7,0-11.7,0C111.8,93.3,111.8,95.2,111.8,97.3z"/>
	</g>
</g>
<g id="DMC" class="st0">
	<g class="st1">
		<path class="st2" d="M40,127.3h46.9V72.7H54.6L40,127.3z M75.4,75.5l-13.1,48.9H43.7l13.1-48.9H75.4z"/>
		<rect x="32.2" y="95.7" class="st2" width="2.8" height="8.5"/>
		<rect x="32.2" y="107.7" class="st2" width="2.8" height="8.5"/>
		<rect x="32.2" y="83.8" class="st2" width="2.8" height="8.5"/>
		<polygon class="st2" points="35.1,79.5 32.2,79.5 32.2,72.7 39,72.7 39,75.5 35.1,75.5 		"/>
		<polygon class="st2" points="32.2,120.5 35.1,120.5 35.1,124.5 39,124.5 39,127.3 32.2,127.3 		"/>
		<rect x="42.5" y="72.7" class="st2" width="8.5" height="2.8"/>
	</g>
	<g class="st1">
		<g>
			<path class="st2" d="M97.9,76h4.6c3.7,0,6.3,2.5,6.3,5.9v0c0,3.3-2.6,5.9-6.3,5.9h-4.6V76z M100.5,78.4v7.1h2
				c2.1,0,3.6-1.4,3.6-3.5v0c0-2.1-1.4-3.6-3.6-3.6H100.5z"/>
			<path class="st2" d="M111.2,76h2.6v11.8h-2.6V76z"/>
			<path class="st2" d="M116.2,82L116.2,82c0-3.4,2.6-6.1,6.2-6.1c2.1,0,3.4,0.6,4.6,1.6l-1.6,2c-0.9-0.8-1.7-1.2-3.1-1.2
				c-1.9,0-3.4,1.7-3.4,3.7v0c0,2.2,1.5,3.7,3.6,3.7c0.9,0,1.8-0.2,2.4-0.7v-1.7h-2.6V81h5.1v5.1c-1.2,1-2.9,1.9-5,1.9
				C118.7,88,116.2,85.5,116.2,82z"/>
			<path class="st2" d="M130.1,76h2.6v11.8h-2.6V76z"/>
			<path class="st2" d="M138.4,78.4h-3.6V76h9.8v2.4H141v9.4h-2.6V78.4z"/>
			<path class="st2" d="M149.1,76h2.4l5.1,11.9h-2.7l-1.1-2.6h-5l-1.1,2.6H144L149.1,76z M151.8,82.9l-1.6-3.8l-1.6,3.8H151.8z"/>
			<path class="st2" d="M158.3,76h2.6v9.4h5.9v2.4h-8.5V76z"/>
		</g>
		<g>
			<path class="st2" d="M98,94.1h2.9l3.2,5.1l3.2-5.1h2.9v12h-2.6v-7.9l-3.4,5.1h-0.1l-3.4-5.1v7.8H98V94.1z"/>
			<path class="st2" d="M112.9,94.1h9.1v2.4h-6.4v2.4h5.7v2.4h-5.7v2.5h6.5v2.4h-9.2V94.1z"/>
			<path class="st2" d="M124.4,94.1h4.7c3.8,0,6.4,2.6,6.4,6v0c0,3.4-2.6,6-6.4,6h-4.7V94.1z M127.1,96.5v7.3h2
				c2.2,0,3.6-1.5,3.6-3.6v0c0-2.1-1.5-3.6-3.6-3.6H127.1z"/>
			<path class="st2" d="M138,94.1h2.6v12H138V94.1z"/>
			<path class="st2" d="M147.8,94h2.4l5.2,12.1h-2.8l-1.1-2.7h-5.1l-1.1,2.7h-2.7L147.8,94z M150.6,101.1l-1.6-3.9l-1.6,3.9H150.6z"
				/>
		</g>
		<g>
			<path class="st2" d="M97.9,118.1L97.9,118.1c0-3.4,2.5-6.1,6.1-6.1c2.2,0,3.6,0.7,4.6,1.8l-1.7,1.9c-0.9-0.8-1.8-1.3-3-1.3
				c-2,0-3.4,1.6-3.4,3.7v0c0,2,1.4,3.7,3.4,3.7c1.3,0,2.2-0.5,3.1-1.4l1.6,1.7c-1.2,1.3-2.6,2.1-4.8,2.1
				C100.5,124.2,97.9,121.5,97.9,118.1z"/>
			<path class="st2" d="M110.8,112.2h8.9v2.3h-6.3v2.4h5.6v2.3h-5.6v2.5h6.4v2.3h-9V112.2z"/>
			<path class="st2" d="M122.1,112.2h2.4l5.5,7.3v-7.3h2.6V124h-2.2l-5.7-7.5v7.5h-2.6V112.2z"/>
			<path class="st2" d="M138.2,114.6h-3.6v-2.4h9.8v2.4h-3.6v9.4h-2.6V114.6z"/>
			<path class="st2" d="M146.3,112.2h8.9v2.3h-6.3v2.4h5.6v2.3h-5.6v2.5h6.4v2.3h-9V112.2z"/>
			<path class="st2" d="M157.6,112.2h5.4c1.5,0,2.7,0.4,3.4,1.2c0.7,0.7,1,1.6,1,2.7v0c0,1.9-1,3.1-2.5,3.7l2.9,4.2h-3l-2.5-3.8h-2
				v3.8h-2.6V112.2z M162.8,117.9c1.3,0,2-0.7,2-1.7v0c0-1.1-0.8-1.7-2-1.7h-2.6v3.4H162.8z"/>
		</g>
	</g>
</g>
<g id="MCB" class="st0">
	<g class="st1">
		<g>
			<g>
				<path class="st4" d="M48.4,102.6c-1.9,0.6-3.8,1.2-6.2,1.2c-2.4,0-4.3-0.7-6.2-1.2V80.3h-6.2v25.4c3.4,2,7.7,3.2,12.4,3.2
					c4.7,0,9-1.2,12.4-3.2V80.3h-6.2V102.6z"/>
				<path class="st4" d="M77.4,85.8v4.1h6.2v-7.2c-3.4-2-7.7-3.1-12.4-3.1c-4.7,0-9,1.2-12.3,3.1v23.1c3.4,1.9,7.7,3.1,12.3,3.1
					c4.7,0,9-1.2,12.4-3.1v-8.4h-6.2v5.3c-1.8,0.6-3.8,0.9-6.2,0.9c-2.4,0-4.3-0.3-6.2-0.9V85.8c1.9-0.6,3.8-0.9,6.2-0.9
					C73.6,84.9,75.5,85.2,77.4,85.8z"/>
				<path class="st4" d="M88,82.6v23.1c3.4,1.9,7.7,3.1,12.4,3.1c4.7,0,9-1.2,12.4-3.1V82.6c-3.4-1.9-7.7-3.1-12.4-3.1
					C95.7,79.5,91.4,80.7,88,82.6z M106.6,102.6c-1.9,0.6-3.8,0.9-6.2,0.9c-2.4,0-4.3-0.3-6.2-0.9V85.8c1.9-0.6,3.8-0.9,6.2-0.9
					c2.4,0,4.3,0.3,6.2,0.9V102.6z"/>
				<polygon class="st4" points="135.9,100 135.7,100 123.4,80.3 116.8,80.3 116.8,108 122.4,108 122.4,88.4 122.6,88.4 134.9,108 
					141.5,108 141.5,80.3 135.9,80.3 				"/>
				<polygon class="st4" points="164.6,100 164.4,100 152.1,80.3 145.5,80.3 145.5,108 151.1,108 151.1,88.4 151.3,88.4 163.6,108 
					170.2,108 170.2,80.3 164.6,80.3 				"/>
			</g>
		</g>
	</g>
	<rect x="29.8" y="114.3" class="st5" width="140.4" height="6.2"/>
	<text transform="matrix(1 0 0 1 29.799 120.2012)" class="st1"><tspan x="0" y="0" class="st4 st6 st7">MOLECULAR AND CELL BIOLO</tspan><tspan x="128.6" y="0" class="st4 st6 st7">-</tspan></text>
</g>
<g id="AgencyX">
	<path class="st8" d="M109,121.9c-1.8,0-3.6,0-5.4,0c-0.4,0-0.5-0.2-0.5-0.5c-1.5-5.3-2.9-10.5-4.4-15.8c-0.8-2.7-1.5-5.4-2.3-8.1
		c-0.1-0.2,0-0.5-0.4-0.5c0,8.3,0.1,16.6,0.1,25c-2,0-4,0-6,0c-0.1-14.7-0.1-29.3-0.2-44c1.8,0,3.7,0,5.5,0c0.5,0,0.4,0.4,0.5,0.6
		c1.3,4.7,2.6,9.4,3.9,14.2c0.9,3.2,1.7,6.3,2.6,9.5c0.1,0.2,0,0.5,0.4,0.7c0-8.4-0.1-16.7-0.1-25c2.1,0,4,0,6,0
		C108.9,92.5,109,107.2,109,121.9z"/>
	<path class="st8" d="M62.5,120.1c-1,1.1-2.1,2-3.5,2.3c-3.9,1-7.6-1.3-8.7-5.4c-0.3-1-0.4-2.1-0.4-3.2c0-8.8-0.1-17.6-0.1-26.4
		c0-1.7,0.3-3.4,1-4.9c1.7-3.8,4.9-5.1,8.7-4.8c4.3,0.4,6.6,3.7,7.3,7.4c0.5,2.8,0.2,5.7,0.3,8.5c0,0.3-0.1,0.4-0.4,0.4
		c-2,0-4,0-6.1,0c0-2.3,0-4.5,0-6.7c0-0.8-0.1-1.5-0.4-2.2c-0.4-0.7-1-1.1-1.7-1.1c-0.8,0-1.3,0.4-1.6,1.1c-0.3,0.6-0.4,1.2-0.4,1.8
		c0,9,0.1,18,0.1,27c0,0.7,0.2,1.4,0.6,2.1c0.4,0.6,1,0.9,1.7,0.8c0.7-0.1,1.2-0.4,1.5-1.1c0.2-0.5,0.4-1,0.4-1.6c0-2.8,0-5.6,0-8.4
		c-0.8,0-1.6,0-2.5,0c0-1.8,0-3.6,0-5.4c0.1,0,0.2,0,0.3,0c2.7,0,5.4,0,8.1,0c0.3,0,0.6-0.1,0.6,0.5c0,7.1,0,14.2,0.1,21.3
		c0,0,0,0.1-0.1,0.2c-1.1,0-2.3,0-3.4,0c-0.3,0-0.4-0.1-0.5-0.4C62.9,121.2,62.7,120.7,62.5,120.1z"/>
	<path class="st8" d="M46.1,114.8c-1.8-11.7-3.6-23.4-5.4-35.2c-0.2-1.5-0.2-1.5-1.7-1.5l-6.4,0c-2.2,14.7-4.3,29.4-6.5,44l6.3,0
		c0.4-3,0.8-6,1.2-9c1.9,0,3.7,0,5.5,0c0.6,0,0.7,0.2,0.8,0.7c0.3,2.7,0.7,5.5,1.1,8.2l6.3,0C46.8,119.6,46.4,117.2,46.1,114.8z
		 M34.4,106.3c0.7-5,1.3-10,2-15c0.1,0,0.2,0,0.3,0c0.7,5,1.4,9.9,2.1,14.9L34.4,106.3z"/>
	<path class="st8" d="M163.4,89.4c0.4-0.7,0.5-1.3,0.7-1.9c1-3.1,1.9-6.2,2.9-9.3c0.1-0.5,0.3-0.6,0.8-0.6c1.9,0,3.8,0,5.8,0
		c-0.6,1.7-1.1,3.3-1.6,4.9c-1.7,5.1-3.4,10.2-5.1,15.3c-0.2,0.5-0.1,1,0,1.5c2.3,7.2,4.5,14.4,6.8,21.6c0.1,0.2,0.1,0.4,0.2,0.7
		c-2,0-4,0-6,0c-0.4,0-0.4-0.3-0.5-0.5c-1.2-4.2-2.4-8.3-3.6-12.5c-0.1-0.2-0.1-0.4-0.2-0.8c-0.3,1.2-0.6,2.3-0.9,3.3
		c-0.9,3.3-1.9,6.6-2.8,9.9c-0.1,0.5-0.4,0.7-0.9,0.7c-1.8,0-3.7,0-5.6,0c0-0.7,0.3-1.3,0.5-2c2.1-6.8,4.1-13.7,6.2-20.5
		c0.1-0.5,0.1-0.9,0-1.4c-2.2-6.4-4.4-12.8-6.5-19.2c-0.1-0.3-0.3-0.5-0.2-0.9c2,0,4,0,6,0c0.4,0,0.4,0.3,0.4,0.6
		c1.1,3.4,2.2,6.8,3.3,10.2C163.2,88.8,163.3,89.1,163.4,89.4z"/>
	<path class="st8" d="M130.5,92.9c-2.1,0-4.1,0-6.1,0c0-2.1,0-4.1,0-6.2c0-0.8-0.2-1.6-0.7-2.3c-0.8-1.2-2.6-1.2-3.4,0
		c-0.5,0.7-0.6,1.5-0.6,2.3c0,8.7,0.1,17.3,0.1,26c0,0.7,0.2,1.3,0.5,1.9c0.4,0.8,1,1.3,2,1.2c1-0.1,1.6-0.6,1.9-1.5
		c0.2-0.5,0.3-1.1,0.3-1.6c0-2,0-4.1,0-6.2c2,0,4,0,6.1,0c-0.2,3.3,0.5,6.6-0.7,9.9c-1.4,4.2-5,6.3-9.3,5.7c-4.1-0.5-6.2-3.6-7-7.1
		c-0.2-1-0.3-2-0.3-3c0-8.4-0.1-16.7-0.1-25.1c0-1.9,0.4-3.8,1.3-5.5c1.7-3.3,4.5-4.4,8-4.2c4,0.3,6.7,2.8,7.6,7.1
		C130.8,87.2,130.4,90,130.5,92.9z"/>
	<path class="st8" d="M71.7,78c4.9,0,9.8,0,14.7-0.1c0,2.2,0,4.4,0,6.7c-2.1,0-4.3,0-6.4,0c-1.9,0-1.9,0-1.9,1.9c0,3.2,0,6.3,0,9.6
		c2,0,4,0,6,0c0,2.4,0,4.8,0,7.2c-1.6,0-3.2,0-4.8,0c-1.1,0-1.1,0-1.1,1.2c0,3.4,0,6.8,0,10.2c0,0.6,0.1,0.7,0.7,0.7
		c2.5,0,5,0,7.6,0c0,2.2,0,4.4,0,6.6c-4.9,0-9.8,0-14.7,0.1C71.8,107.4,71.8,92.7,71.7,78z"/>
	<path class="st8" d="M139.2,121.8c0-0.3,0-0.6,0-0.8c0-5.6-0.1-11.3-0.1-16.9c0-1.6-0.6-3-1-4.5c-1.9-7.1-3.8-14.2-5.7-21.4
		c0-0.1,0-0.2,0-0.4c2,0,4,0,6.1,0c0.4,0,0.4,0.3,0.4,0.5c1,4.3,2,8.6,3,12.9c0.1,0.3,0.1,0.7,0.4,1.1c0.4-1,0.6-2.1,0.8-3.1
		c0.8-3.6,1.6-7.2,2.4-10.8c0.1-0.5,0.3-0.7,0.8-0.7c1.9,0,3.8,0,5.7,0c-0.8,3.2-1.6,6.4-2.4,9.5c-1.3,5.2-2.7,10.4-4,15.5
		c-0.1,0.3-0.1,0.6-0.1,1c0,6,0,12,0.1,18C143.5,121.7,141.4,121.7,139.2,121.8z"/>
</g>
</svg>
