<?xml version="1.0" encoding="utf-8"?>
<!-- Generator: Adobe Illustrator 21.0.0, SVG Export Plug-In . SVG Version: 6.00 Build 0)  -->
<svg version="1.1" id="Layer_1" xmlns="http://www.w3.org/2000/svg" xmlns:xlink="http://www.w3.org/1999/xlink" x="0px" y="0px"
	 viewBox="0 0 1451.9 368.4" style="enable-background:new 0 0 1451.9 368.4;" xml:space="preserve">
<style type="text/css">
	.st0{fill:#FFFFFF;}
</style>
<g>
	<g>
		<path class="st0" d="M298.8,315c-15.4,13.3-32.8,23.5-51.9,30.6c-19.2,7.1-39,10.7-59.6,10.7c-15.8,0-30.9-2-45.5-6.1
			s-28.3-9.9-41-17.4s-24.4-16.5-34.9-27s-19.5-22.1-27-34.9c-7.5-12.7-13.3-26.4-17.4-41s-6.1-29.8-6.1-45.5s2-31,6.1-45.7
			s9.9-28.4,17.4-41.1s16.5-24.4,27-34.9s22.1-19.5,34.9-27c12.7-7.5,26.4-13.3,41-17.4s29.8-6.1,45.5-6.1
			c20.5,0,40.4,3.5,59.6,10.5s36.5,17.3,51.9,30.7l-35.2,57.9c-9.7-10.5-21.2-18.6-34.5-24.2s-27.2-8.5-41.7-8.5
			c-14.7,0-28.4,2.8-41.2,8.3c-12.8,5.6-24,13.1-33.6,22.6s-17.1,20.7-22.7,33.6c-5.6,12.9-8.3,26.6-8.3,41.1s2.8,28.2,8.3,40.9
			c5.6,12.7,13.1,23.9,22.7,33.5s20.8,17.1,33.6,22.7s26.6,8.3,41.2,8.3c14.5,0,28.4-2.8,41.7-8.5c13.3-5.6,24.8-13.7,34.5-24.2
			L298.8,315z"/>
		<path class="st0" d="M268.4,184.4c0,12.2-2.2,23.5-6.5,34c-4.4,10.5-10.3,19.6-17.8,27.2c-7.5,7.7-16.3,13.7-26.4,18.1
			c-10.1,4.4-20.9,6.6-32.5,6.6c-11.5,0-22.2-2.2-32.3-6.6s-18.9-10.4-26.4-18.1c-7.5-7.6-13.5-16.7-17.9-27.2s-6.5-21.8-6.5-34
			c0-12.4,2.2-23.8,6.5-34.4c4.4-10.5,10.3-19.6,17.9-27.3c7.5-7.6,16.4-13.7,26.4-18c10.1-4.4,20.8-6.5,32.3-6.5
			c11.6,0,22.4,2.1,32.5,6.2s18.9,9.9,26.4,17.5c7.5,7.5,13.4,16.6,17.8,27.2C266.2,159.6,268.4,171.4,268.4,184.4z M226.6,184.4
			c0-6.7-1.1-12.7-3.3-18.2c-2.2-5.4-5.1-10.1-8.9-14c-3.7-3.9-8.1-6.9-13.1-9s-10.4-3.1-16-3.1c-5.7,0-11,1-16,3.1s-9.4,5.1-13.1,9
			c-3.7,3.9-6.6,8.6-8.7,14c-2.1,5.4-3.2,11.5-3.2,18.2c0,6.3,1.1,12.1,3.2,17.5c2.1,5.4,5,10,8.7,14s8.1,7.1,13.1,9.3
			s10.4,3.4,16,3.4c5.7,0,11-1.1,16-3.2s9.4-5.1,13.1-9c3.7-3.8,6.7-8.5,8.9-14C225.5,197,226.6,190.9,226.6,184.4z"/>
	</g>
	<g>
		<path class="st0" d="M356.7,268.2h-40.3V48.7h40.3V268.2z"/>
		<path class="st0" d="M415.7,268.2h-40.3V48.7h40.3V268.2z"/>
		<path class="st0" d="M500.7,229.8c1.6,0.5,3.1,0.8,4.7,1c1.6,0.1,3.1,0.2,4.7,0.2c3.9,0,7.7-0.5,11.3-1.6s7-2.6,10.2-4.6
			s6-4.4,8.5-7.3c2.5-2.9,4.5-6.1,6.1-9.6l29.3,29.5c-3.7,5.3-8,10-12.8,14.2s-10.1,7.8-15.7,10.7c-5.6,2.9-11.5,5.2-17.7,6.7
			s-12.6,2.3-19.1,2.3c-11,0-21.4-2.1-31.2-6.2c-9.7-4.1-18.2-9.8-25.5-17.2c-7.3-7.3-13-16.1-17.2-26.2
			c-4.2-10.1-6.3-21.2-6.3-33.4c0-12.4,2.1-23.8,6.3-34c4.2-10.3,9.9-19,17.2-26.2c7.3-7.2,15.8-12.9,25.5-16.9s20.1-6,31.2-6
			c6.5,0,13,0.8,19.2,2.3c6.3,1.6,12.2,3.8,17.8,6.7c5.6,2.9,10.9,6.5,15.8,10.8c4.9,4.3,9.2,9,12.9,14.3L500.7,229.8z M521.2,147.2
			c-1.9-0.7-3.7-1.1-5.5-1.3s-3.7-0.3-5.6-0.3c-5.5,0-10.6,1-15.5,3c-4.8,2-9,4.9-12.6,8.6c-3.6,3.7-6.4,8.2-8.4,13.4
			c-2.1,5.2-3.1,11.1-3.1,17.7c0,1.5,0.1,3.1,0.2,5s0.4,3.7,0.7,5.6c0.3,1.9,0.8,3.7,1.2,5.5c0.5,1.8,1.1,3.3,1.9,4.7L521.2,147.2z"
			/>
		<path class="st0" d="M724,142.4l-29.3,29.5c-1.5-4.1-3.5-7.8-6-11.1s-5.4-6-8.6-8.3c-3.2-2.2-6.6-4-10.3-5.1
			c-3.7-1.2-7.5-1.8-11.4-1.8c-5.5,0-10.6,1.1-15.5,3.4c-4.8,2.2-9,5.4-12.6,9.5s-6.4,8.9-8.4,14.4c-2.1,5.6-3.1,11.7-3.1,18.5
			c0,5.5,1,10.6,3.1,15.4c2.1,4.8,4.9,9,8.4,12.6c3.6,3.6,7.8,6.5,12.6,8.5c4.8,2.1,10,3.1,15.5,3.1c3.9,0,7.7-0.5,11.3-1.6
			s7-2.6,10.2-4.6s6-4.4,8.5-7.3c2.5-2.9,4.5-6.1,6.1-9.6l29.3,29.5c-3.7,5.3-8,10-12.8,14.2s-10.1,7.8-15.7,10.7
			c-5.6,2.9-11.5,5.2-17.7,6.7s-12.6,2.3-19.1,2.3c-11,0-21.4-2.1-31.2-6.2c-9.7-4.2-18.2-9.8-25.5-17.1c-7.3-7.2-13-15.7-17.2-25.4
			s-6.3-20-6.3-31.1c0-12,2.1-23.3,6.3-33.7c4.2-10.5,9.9-19.6,17.2-27.3c7.3-7.8,15.8-13.9,25.5-18.4s20.1-6.7,31.2-6.7
			c6.5,0,13,0.8,19.3,2.5s12.3,4.1,18,7.3c5.7,3.2,11,7.1,15.8,11.7C716.3,131.2,720.5,136.4,724,142.4z"/>
		<path class="st0" d="M826.2,268.2c-9.7,0-18.8-1.8-27.3-5.5s-16-8.7-22.4-15.1c-6.4-6.4-11.4-13.9-15.1-22.4
			c-3.7-8.5-5.5-17.6-5.5-27.3v-46.6h-19.5v-39.9H756V48.7h39.9v62.8h60.7v39.9h-60.7V198c0,4.2,0.8,8.1,2.3,11.8
			c1.6,3.7,3.7,6.9,6.5,9.6c2.7,2.7,6,4.9,9.7,6.5s7.7,2.4,11.9,2.4h30.4v39.9H826.2z"/>
		<path class="st0" d="M922.3,68.5c0,3.7-0.7,7.2-2.1,10.4c-1.4,3.2-3.3,6-5.8,8.4c-2.4,2.4-5.3,4.3-8.6,5.7
			c-3.3,1.4-6.8,2.1-10.5,2.1s-7.2-0.7-10.5-2.1s-6.1-3.3-8.5-5.7c-2.4-2.4-4.3-5.2-5.7-8.4c-1.4-3.2-2.1-6.7-2.1-10.4
			c0-3.6,0.7-7.1,2.1-10.3c1.4-3.3,3.3-6.1,5.7-8.5s5.2-4.3,8.5-5.7s6.8-2.1,10.5-2.1s7.2,0.7,10.5,2.1c3.3,1.4,6.1,3.3,8.6,5.7
			c2.4,2.4,4.4,5.2,5.8,8.5C921.6,61.4,922.3,64.9,922.3,68.5z M915.4,268.2h-40.3v-157h40.3V268.2z"/>
		<path class="st0" d="M990.5,268.2l-59.8-157h45.6l34.3,97.9l34.2-97.9h45.7l-59.8,157H990.5z"/>
		<path class="st0" d="M1151.8,229.8c1.6,0.5,3.1,0.8,4.7,1c1.6,0.1,3.1,0.2,4.7,0.2c3.9,0,7.7-0.5,11.3-1.6c3.6-1.1,7-2.6,10.2-4.6
			s6-4.4,8.5-7.3c2.5-2.9,4.5-6.1,6.1-9.6l29.3,29.5c-3.7,5.3-8,10-12.8,14.2s-10.1,7.8-15.7,10.7c-5.6,2.9-11.5,5.2-17.7,6.7
			s-12.6,2.3-19.1,2.3c-11,0-21.4-2.1-31.2-6.2c-9.7-4.1-18.2-9.8-25.5-17.2c-7.3-7.3-13-16.1-17.2-26.2
			c-4.2-10.1-6.3-21.2-6.3-33.4c0-12.4,2.1-23.8,6.3-34c4.2-10.3,9.9-19,17.2-26.2c7.3-7.2,15.8-12.9,25.5-16.9s20.1-6,31.2-6
			c6.5,0,12.9,0.8,19.2,2.3c6.3,1.6,12.2,3.8,17.8,6.7c5.6,2.9,10.9,6.5,15.8,10.8c4.9,4.3,9.2,9,12.9,14.3L1151.8,229.8z
			 M1172.3,147.2c-1.9-0.7-3.7-1.1-5.5-1.3s-3.7-0.3-5.6-0.3c-5.5,0-10.6,1-15.5,3c-4.8,2-9,4.9-12.6,8.6c-3.6,3.7-6.4,8.2-8.4,13.4
			c-2.1,5.2-3.1,11.1-3.1,17.7c0,1.5,0.1,3.1,0.2,5s0.4,3.7,0.7,5.6c0.3,1.9,0.8,3.7,1.2,5.5c0.5,1.8,1.1,3.3,1.9,4.7L1172.3,147.2z
			"/>
		<path class="st0" d="M1279.3,268.2H1239V48.7h40.3V268.2z"/>
		<path class="st0" d="M316.4,328v-40.3l1041.7,0.3c3.9,0,7.7-0.6,11.3-1.9c3.6-1.3,7-3,10-5.3c3.1-2.2,5.8-4.9,8.1-8
			c2.3-3.1,4.3-6.4,5.7-10c-4.4,1.9-8.9,3.7-13.4,5.6s-9.1,2.8-13.7,2.8c-9.7,0-18.8-1.7-27.3-5.1s-16-8.3-22.4-14.6
			c-6.4-6.3-11.4-14-15.1-23s-5.5-19.2-5.5-30.4v-86.8h39.9V198c0,5.6,0.8,10.4,2.4,14.6c1.6,4.2,3.8,7.6,6.5,10.4
			c2.7,2.8,5.9,4.9,9.6,6.2c3.7,1.4,7.6,2.1,11.8,2.1c4.1,0,8-1,11.7-2.9s6.9-4.4,9.6-7.6c2.7-3.1,4.9-6.7,6.5-10.6
			c1.6-4,2.3-8,2.3-12.2v-86.8h40.3v137.2c-0.1,11-2.2,21.4-6.5,31.1c-4.2,9.7-9.9,18.1-17.2,25.4c-7.3,7.2-15.8,13-25.4,17.2
			c-9.7,4.2-20,6.3-31.1,6.3L316.4,328z"/>
	</g>
</g>
</svg>
