<?xml version="1.0" encoding="utf-8"?>
<!-- Generator: Adobe Illustrator 19.2.0, SVG Export Plug-In . SVG Version: 6.00 Build 0)  -->
<svg version="1.1" id="Layer_1" xmlns="http://www.w3.org/2000/svg" xmlns:xlink="http://www.w3.org/1999/xlink" x="0px" y="0px"
	 viewBox="0 0 200 200" style="enable-background:new 0 0 200 200;" xml:space="preserve">
<style type="text/css">
	.st0{fill:#F5F5F5;}
</style>
<rect width="200" height="200"/>
<g id="Woven">
	<g id="w92OVp.tif">
		<g>
			<path class="st0" d="M79.3,101.6c-1.9-0.1-3.8-0.3-5.7-0.4c-3.7-0.2-5.5-2-5.7-5.7c-0.1-2.2-0.1-4.4,0-6.5
				c0.1-3.2,1.7-5.2,4.7-5.4c5-0.3,9.9-0.3,14.9-0.1c2.8,0.1,4.3,1.8,4.5,4.7c0.2,2.5,0.2,5,0,7.5c-0.3,3.6-2.1,5.2-5.7,5.5
				c-1.8,0.1-3.6,0.3-5.3,0.4C80.4,101.6,79.9,101.6,79.3,101.6z M80,97C80,97,80,97,80,97c1.5,0,2.9,0,4.4,0
				c1.4-0.1,2.3-0.9,2.4-2.3c0.1-1.6,0.1-3.1,0.1-4.7c0-1.3-0.7-2.2-2-2.2c-3.1-0.1-6.2-0.1-9.3,0c-1.2,0-2,0.8-2,2.1
				c0,1.7,0,3.3,0.1,5c0.1,1.4,1,2.1,2.3,2.1C77.2,97,78.6,97,80,97z"/>
			<path class="st0" d="M54.6,96.4c1.7-4.3,3.4-8.6,5.1-12.9c1.8,0,3.5,0,5.4,0c-2.5,6-4.9,11.8-7.3,17.6c-2.5,0-4.8,0-7.3,0
				c-1.3-4.1-2.6-8.2-3.9-12.4c-0.1,0-0.2,0-0.3,0c-1.3,4.1-2.7,8.2-4,12.3c-2.4,0-4.7,0-7.3,0c-2.3-5.7-4.7-11.6-7.1-17.6
				c1.9,0,3.6,0,5.4,0c1.7,4.3,3.3,8.6,5,13c0.1,0,0.3,0,0.4,0c1.5-4.3,2.9-8.6,4.4-13c2.2,0,4.3,0,6.6,0c1.4,4.3,2.9,8.6,4.3,12.9
				C54.3,96.4,54.5,96.4,54.6,96.4z"/>
			<path class="st0" d="M147.7,83.5c2.9,0,5.7,0,8.6,0c3.4,4.3,7,8.7,10.5,13.1c0.1,0,0.2-0.1,0.4-0.1c0-4.3,0-8.5,0-12.9
				c1.7,0,3.2,0,4.9,0c0,5.9,0,11.7,0,17.6c-2.9,0-5.6,0-8.6,0c-3.4-4.2-6.8-8.6-10.6-13.3c0,4.7,0,8.9,0,13.3c-1.7,0-3.3,0-5,0
				C147.7,95.2,147.7,89.4,147.7,83.5z"/>
			<path class="st0" d="M129.1,87.3c0,1.2,0,2.1,0,3.1c4.5,0,8.9,0,13.5,0c0,1.2,0,2.3,0,3.5c-4.5,0-8.9,0-13.5,0c0,1.2,0,2.1,0,3.3
				c4.8,0,9.6,0,14.5,0c0,1.3,0,2.5,0,3.8c-6.5,0-13,0-19.7,0c0-5.8,0-11.6,0-17.5c6.4,0,12.9,0,19.5,0c0,1.2,0,2.4,0,3.8
				C138.6,87.3,133.9,87.3,129.1,87.3z"/>
			<path class="st0" d="M110.9,101.1c-2.4,0-4.6,0-6.9,0c-3.1-5.8-6.2-11.6-9.4-17.6c2.1,0,3.9,0,5.9,0c2.3,4.3,4.5,8.7,7,13.4
				c2.5-4.6,4.8-9,7.2-13.4c1.9,0,3.7,0,5.9,0C117.4,89.5,114.2,95.3,110.9,101.1z"/>
		</g>
	</g>
	<g>
		<g id="Zkv8sB.tif">
			<g>
				<path class="st0" d="M57.5,111.5C57.6,111.5,57.6,111.5,57.5,111.5c1.2,0.4,1.5,0.6,1.5,1.9c0,0.6,0,1.2-0.1,1.7
					c-0.1,1-0.6,1.4-1.6,1.5c-0.4,0-0.8,0.1-1.3,0.1c-0.4,0-0.7,0-1.1,0c-0.4,0-0.8-0.1-1.3-0.1c-1-0.1-1.5-0.6-1.5-1.5
					c0-0.6,0-1.2,0-1.8c0-1,0.4-1.4,1.4-1.6c0.1,0,0.2-0.1,0.4-0.1C55.2,111.5,56.4,111.5,57.5,111.5z M55.7,115.3
					C55.7,115.3,55.7,115.3,55.7,115.3c0.4,0,0.8,0,1.2,0c0.4,0,0.7-0.2,0.7-0.6c0-0.5,0-0.9,0-1.4c0-0.3-0.2-0.5-0.5-0.5
					c-0.9,0-1.8,0-2.7,0c-0.3,0-0.5,0.2-0.5,0.5c0,0.5,0,0.9,0,1.4c0,0.4,0.3,0.6,0.7,0.6C54.9,115.3,55.3,115.3,55.7,115.3z"/>
				<path class="st0" d="M27.8,111.5C27.8,111.5,27.8,111.5,27.8,111.5c1.2,0.4,1.5,0.6,1.5,1.9c0,0.6,0,1.2-0.1,1.7
					c-0.1,1-0.6,1.4-1.6,1.5c-0.4,0-0.8,0.1-1.3,0.1c-0.4,0-0.7,0-1.1,0c-0.4,0-0.8-0.1-1.3-0.1c-1-0.1-1.5-0.6-1.5-1.5
					c0-0.7,0-1.3,0-2c0-0.8,0.5-1.3,1.3-1.5c0.2,0,0.3-0.1,0.4-0.1C25.5,111.5,26.6,111.5,27.8,111.5z M25.9,115.3
					C25.9,115.3,25.9,115.3,25.9,115.3c0.4,0,0.8,0,1.2,0c0.4,0,0.6-0.2,0.7-0.6c0-0.4,0-0.9,0-1.3c0-0.3-0.2-0.6-0.5-0.6
					c-0.9,0-1.8,0-2.6,0c-0.3,0-0.5,0.2-0.5,0.6c0,0.4,0,0.9,0,1.3c0,0.5,0.2,0.6,0.7,0.6C25.2,115.3,25.5,115.3,25.9,115.3z"/>
				<path class="st0" d="M91,115.3c-0.2,1.1-0.8,1.2-1.6,1.2c-1,0-2,0-3,0c-1.1,0-1.6-0.5-1.7-1.6c0-0.6,0-1.2,0-1.7
					c0-1,0.5-1.4,1.4-1.6c0.2,0,0.3-0.1,0.5-0.1c0.8,0,1.7,0,2.5,0c0.2,0,0.4,0.1,0.6,0.1c0.9,0.1,1.3,0.8,1.1,1.7
					c-0.4,0-0.9,0-1.3,0c-0.1-0.2-0.1-0.3-0.2-0.4c-0.8-0.2-1.7-0.1-2.5-0.1c-0.4,0-0.6,0.3-0.6,0.6c0,0.4,0,0.8,0,1.2
					c0,0.6,0.3,0.8,0.8,0.8c0.6,0,1.2,0,1.7,0c0.6,0,0.7-0.1,0.9-0.7c0.5,0,0.9,0,1.4,0C91,114.9,91,115.1,91,115.3z"/>
				<path class="st0" d="M32.1,115.3c0,0.4,0,0.8,0,1.2c-0.5,0-1,0-1.5,0c0-1.6,0-3.2,0-4.9c0.1,0,0.2-0.1,0.3-0.1
					c1.5,0,3.1,0,4.6,0c0.9,0,1.3,0.4,1.3,1.4c0,0.1,0,0.2,0,0.3c0,0.9-0.2,1.1-1.1,1.4c0.4,0.1,0.9,0.1,1,0.6
					c0.1,0.4,0.1,0.8,0.1,1.2c-0.5,0-1,0-1.5,0c0-0.2,0-0.4,0-0.6c0-0.4-0.2-0.6-0.6-0.6C33.8,115.3,33,115.3,32.1,115.3z M32.1,114
					c1,0,1.9,0,2.9,0c0.3,0,0.4-0.3,0.4-0.6c0-0.3-0.1-0.6-0.5-0.6c-0.4,0-0.8,0-1.2,0c-0.5,0-1.1,0-1.6,0
					C32.1,113.2,32.1,113.6,32.1,114z"/>
				<path class="st0" d="M51,116.5c-0.5,0-1,0-1.5,0c0-0.6,0-1.2,0-1.8c-1.2,0-2.3,0-3.5,0c0,0.6,0,1.2,0,1.8c-0.5,0-1,0-1.5,0
					c0-1.6,0-3.2,0-4.9c0.5,0,0.9,0,1.4,0c0,0.6,0,1.1,0,1.8c1.2,0,2.3,0,3.5,0c0-0.6,0-1.1,0-1.7c0.5,0,1,0,1.5,0
					C51,113.2,51,114.8,51,116.5z"/>
				<path class="st0" d="M41.4,112.8c0,1.3,0,2.5,0,3.7c-0.5,0-1,0-1.5,0c0-1.2,0-2.4,0-3.7c-0.8,0-1.5,0-2.2,0c0-0.4,0-0.8,0-1.2
					c2,0,3.9,0,5.9,0c0,0.4,0,0.8,0,1.2C42.9,112.8,42.2,112.8,41.4,112.8z"/>
				<path class="st0" d="M74.2,111.6c0.1,0,0.2,0,0.3,0c1.5,0,3.1,0,4.6,0c1.2,0,1.7,0.5,1.7,1.7c0,0.6,0,1.1,0,1.7
					c0,0.9-0.6,1.5-1.5,1.5c-1.7,0-3.4,0-5.1,0C74.2,114.9,74.2,113.2,74.2,111.6z M75.6,115.3c1,0,2,0,3,0c0.3,0,0.5-0.2,0.6-0.5
					c0-0.5,0-0.9,0-1.4c0-0.4-0.3-0.6-0.6-0.6c-1,0-1.9,0-2.9,0C75.6,113.6,75.6,114.5,75.6,115.3z"/>
				<path class="st0" d="M68.9,114.5c0,0.3,0,0.6,0,0.9c1.3,0,2.7,0,4,0c0,0.4,0,0.7,0,1.1c-1.8,0-3.6,0-5.5,0c0-1.6,0-3.2,0-4.9
					c1.8,0,3.6,0,5.4,0c0,0.3,0,0.7,0,1.1c-1.3,0-2.6,0-4,0c0,0.3,0,0.6,0,0.9c1.2,0,2.5,0,3.8,0c0,0.3,0,0.6,0,1
					C71.4,114.5,70.1,114.5,68.9,114.5z"/>
				<path class="st0" d="M61.7,115.3c0,0.4,0,0.8,0,1.2c-0.5,0-1,0-1.4,0c0-1.6,0-3.3,0-4.9c0.1,0,0.2,0,0.2,0c1.4,0,2.9,0,4.3,0
					c0.9,0,1.3,0.4,1.4,1.3c0,0.5,0,1-0.1,1.5c-0.1,0.5-0.4,0.8-0.9,0.8c-0.5,0.1-1.1,0.1-1.6,0.1C63,115.3,62.4,115.3,61.7,115.3z
					 M61.8,114.1c0.8,0,1.6,0,2.4,0c0.5,0,0.6-0.2,0.6-0.7c0-0.5-0.1-0.6-0.6-0.6c-0.4,0-0.9,0-1.3,0c-0.3,0-0.7,0-1,0
					C61.8,113.2,61.8,113.6,61.8,114.1z"/>
				<path class="st0" d="M83.4,116.5c-0.5,0-0.9,0-1.4,0c0-1.6,0-3.3,0-4.9c0.5,0,0.9,0,1.4,0C83.4,113.2,83.4,114.8,83.4,116.5z"/>
			</g>
		</g>
		<g id="_x38_1HGHC.tif">
			<g>
				<path class="st0" d="M134.9,116.6c-0.3,0-0.7-0.1-1-0.1c-0.9-0.1-1.4-0.6-1.5-1.5c0-0.7,0-1.3,0-2c0-0.8,0.5-1.4,1.3-1.4
					c1.4-0.1,2.8-0.1,4.2,0c0.8,0,1.2,0.5,1.3,1.3c0.1,0.7,0.1,1.5,0,2.2c-0.1,0.9-0.6,1.3-1.5,1.4c-0.4,0-0.7,0.1-1.1,0.1
					C136,116.6,135.4,116.6,134.9,116.6z M135.7,115.3C135.7,115.3,135.7,115.3,135.7,115.3c0.4,0,0.8,0,1.2,0
					c0.4,0,0.7-0.2,0.7-0.6c0-0.5,0-0.9,0-1.4c0-0.3-0.2-0.5-0.5-0.5c-0.9,0-1.8,0-2.7,0c-0.3,0-0.5,0.2-0.5,0.5c0,0.4,0,0.9,0,1.3
					c0,0.5,0.2,0.6,0.7,0.6C135,115.3,135.4,115.3,135.7,115.3z"/>
				<path class="st0" d="M148.6,116.6c-0.3,0-0.7-0.1-1-0.1c-0.9-0.1-1.4-0.6-1.5-1.5c0-0.7,0-1.3,0-2c0-0.8,0.5-1.4,1.3-1.4
					c1.4-0.1,2.8-0.1,4.2,0c0.8,0,1.2,0.5,1.3,1.3c0.1,0.7,0.1,1.5,0,2.2c-0.1,0.9-0.6,1.3-1.5,1.4c-0.4,0-0.7,0.1-1.1,0.1
					C149.8,116.6,149.2,116.6,148.6,116.6z M149.5,115.3C149.5,115.3,149.5,115.3,149.5,115.3c0.4,0,0.8,0,1.2,0
					c0.4,0,0.6-0.2,0.7-0.6c0-0.4,0-0.9,0-1.4c0-0.3-0.2-0.5-0.5-0.5c-0.9,0-1.7,0-2.6,0c-0.3,0-0.6,0.2-0.6,0.6c0,0.4,0,0.9,0,1.3
					c0,0.4,0.2,0.6,0.7,0.6C148.7,115.3,149.1,115.3,149.5,115.3z"/>
				<path class="st0" d="M177.5,115.1c0,0.1-0.1,0.1-0.1,0.2c-0.2,0.9-0.5,1.2-1.4,1.2c-1.2,0-2.4,0.1-3.6,0c-1,0-1.3-0.5-1.2-1.5
					c0.5,0,0.9,0,1.4,0c0,0.1,0.1,0.2,0.2,0.4c1,0.1,2,0.2,3-0.1c0-0.2,0-0.4,0-0.6c-0.3,0-0.5-0.1-0.7-0.1c-0.8,0-1.6,0-2.4,0
					c-0.2,0-0.4,0-0.6-0.1c-0.7-0.1-0.9-0.4-1-1.1c-0.1-1.3,0.2-1.7,1.5-1.8c1.1-0.1,2.1-0.1,3.2,0c1,0,1.3,0.4,1.2,1.5
					c-0.5,0-0.9,0-1.3,0c-0.3-0.2-0.4-0.4-0.6-0.4c-0.7,0-1.5,0-2.2,0c-0.1,0-0.2,0.1-0.3,0.1c-0.2,0.5-0.1,0.7,0.5,0.7
					c0.7,0,1.5,0,2.2,0c0.3,0,0.6,0,0.9,0.1c0.7,0.1,0.9,0.3,1,1c0,0.1,0.1,0.2,0.1,0.3C177.5,114.9,177.5,115,177.5,115.1z"/>
				<path class="st0" d="M124.3,111.5c0.8,0,1.6,0,2.4,0c1,1.2,1.9,2.4,2.9,3.6c0,0,0.1,0,0.1,0c0-1.2,0-2.4,0-3.6
					c0.5,0,0.9,0,1.4,0c0,1.6,0,3.3,0,4.9c-0.8,0-1.6,0-2.4,0c-0.9-1.2-1.9-2.4-2.9-3.7c0,1.3,0,2.5,0,3.7c-0.5,0-0.9,0-1.4,0
					C124.3,114.8,124.3,113.2,124.3,111.5z"/>
				<path class="st0" d="M160.5,113.2c-0.4,0-0.9,0-1.4,0c-0.1-0.5-0.5-0.6-0.9-0.5c-0.6,0-1.2,0-1.8,0c-0.6,0-0.7,0.2-0.8,0.7
					c0,0.4,0,0.9,0,1.4c0,0.4,0.3,0.6,0.6,0.6c0.8,0,1.5,0,2.3,0c0.4,0,0.5-0.2,0.5-0.7c-0.6,0-1.2,0-1.8,0c0-0.3,0-0.6,0-0.9
					c1.1,0,2.2,0,3.4,0c0,0.7,0.1,1.3-0.1,2c-0.1,0.5-0.5,0.8-1,0.8c-1.3,0-2.6,0-4,0c-0.8,0-1.3-0.5-1.3-1.3c-0.1-0.8,0-1.7,0-2.5
					c0.1-0.7,0.5-1.1,1.2-1.1c1.3-0.1,2.6-0.1,3.9,0C160.3,111.6,160.6,112.2,160.5,113.2z"/>
				<path class="st0" d="M102.3,116.5c0-1.6,0-3.3,0-4.9c1.8,0,3.6,0,5.5,0c0,0.4,0,0.7,0,1.1c-1.3,0-2.6,0-4,0c0,0.3,0,0.5,0,0.9
					c1.2,0,2.5,0,3.7,0c0,0.3,0,0.6,0,1c-1.3,0-2.5,0-3.8,0c0,0.3,0,0.6,0,0.9c1.3,0,2.7,0,4,0c0,0.4,0,0.7,0,1.1
					C106.1,116.5,104.2,116.5,102.3,116.5z"/>
				<path class="st0" d="M164.6,116.5c0-1.7,0-3.3,0-4.9c1.8,0,3.6,0,5.5,0c0,0.3,0,0.7,0,1.1c-1.3,0-2.6,0-4,0c0,0.3,0,0.6,0,0.9
					c1.3,0,2.5,0,3.8,0c0,0.3,0,0.6,0,1c-1.3,0-2.5,0-3.8,0c0,0.3,0,0.6,0,0.9c1.3,0,2.7,0,4,0c0,0.4,0,0.7,0,1.1
					C168.3,116.5,166.4,116.5,164.6,116.5z"/>
				<path class="st0" d="M113.8,114.7c0.5,0,1,0,1.4,0c0,0.3,0,0.5,0,0.8c-0.1,0.6-0.3,0.9-0.9,1c-0.9,0.1-1.8,0.1-2.7,0.1
					c-0.5,0-1.1,0-1.6-0.1c-0.5-0.1-0.9-0.4-0.9-0.9c-0.1-0.9-0.1-1.8,0-2.7c0.1-0.7,0.5-1.1,1.3-1.2c1.3-0.1,2.5-0.1,3.8,0
					c0.8,0,1.1,0.6,1.1,1.6c-0.5,0-0.9,0-1.4,0c0-0.1-0.1-0.2-0.2-0.4c-0.2,0-0.3-0.1-0.5-0.1c-0.7,0-1.4,0-2.1,0
					c-0.5,0-0.6,0.2-0.6,0.6c0,0.4,0,0.8,0,1.3c0,0.4,0.2,0.6,0.7,0.7c0.7,0,1.4,0,2.1,0C113.7,115.3,113.8,115,113.8,114.7z"/>
				<path class="st0" d="M121.4,111.5c0.5,0,1,0,1.5,0c0,1.7,0,3.3,0,4.9c-0.5,0-1,0-1.5,0c0-0.6,0-1.2,0-1.8c-1.2,0-2.3,0-3.5,0
					c0,0.6,0,1.2,0,1.8c-0.5,0-1,0-1.5,0c0-1.6,0-3.3,0-4.9c0.5,0,0.9,0,1.5,0c0,0.6,0,1.1,0,1.8c1.2,0,2.3,0,3.5,0
					C121.4,112.7,121.4,112.1,121.4,111.5z"/>
				<path class="st0" d="M97.7,112.8c-0.8,0-1.5,0-2.2,0c0-0.4,0-0.8,0-1.2c2,0,3.9,0,5.9,0c0,0.4,0,0.8,0,1.2c-0.7,0-1.4,0-2.2,0
					c0,1.3,0,2.5,0,3.7c-0.5,0-1,0-1.5,0C97.7,115.2,97.7,114,97.7,112.8z"/>
				<path class="st0" d="M140.3,116.5c0-1.7,0-3.3,0-4.9c0.5,0,0.9,0,1.5,0c0,1.2,0,2.4,0,3.7c1.2,0,2.3,0,3.4,0c0,0.4,0,0.8,0,1.2
					C143.6,116.5,142,116.5,140.3,116.5z"/>
				<path class="st0" d="M161.8,111.5c0.2,0,0.4,0,0.5,0c0.3,0,0.6,0,0.9,0c0,1.7,0,3.3,0,5c-0.5,0-0.9,0-1.4,0
					C161.8,114.8,161.8,113.2,161.8,111.5z"/>
			</g>
		</g>
	</g>
</g>
</svg>
